<svg width="18" height="13" viewBox="0 0 18 13" fill="none" xmlns="http://www.w3.org/2000/svg">
<path d="M12.3204 2.19289L12.3203 2.19286L12.3165 2.20279L12.3165 2.20286L12.3165 2.20297L12.3164 2.20312L12.3164 2.2032L12.3152 2.20621L12.3096 2.22073C12.3044 2.23411 12.2963 2.25474 12.2855 2.28197C12.2637 2.33646 12.231 2.4172 12.188 2.51884C12.1019 2.72243 11.9757 3.00826 11.8165 3.33394C11.5778 3.82226 11.2752 4.37903 10.9332 4.87864V2.6094C10.9332 2.36938 10.9089 2.01827 10.7032 1.72038C10.4486 1.35183 10.0611 1.25 9.74556 1.25H7.33875C6.63054 1.25 6.19906 1.83399 6.19906 2.38108C6.19906 2.67658 6.3087 2.89841 6.40396 3.04764C6.44629 3.11396 6.49226 3.17559 6.52336 3.21727L6.5254 3.22001L6.52746 3.22277C6.56191 3.26896 6.58682 3.30236 6.61155 3.33876C6.68356 3.44479 6.78451 3.61408 6.80755 4.01705V5.47597C6.78579 5.4399 6.76381 5.40286 6.74161 5.36489C6.29668 4.60379 5.81575 3.54843 5.45713 2.41781L5.45713 2.41781L5.4566 2.41613C5.37945 2.17487 5.26249 1.85993 5.02067 1.61891C4.73372 1.3329 4.38198 1.25 4.05673 1.25H2.52512C2.18968 1.25 1.81002 1.33662 1.53693 1.64506C1.27872 1.93669 1.25 2.28047 1.25 2.46895C1.25 2.67572 1.30221 2.96862 1.38354 3.29138C1.46987 3.63402 1.60346 4.0658 1.7965 4.57026C2.18254 5.57912 2.81109 6.89109 3.78929 8.37586C5.14956 10.488 7.14157 11.75 9.08916 11.75C9.58011 11.75 10.0772 11.7023 10.4419 11.4375C10.9038 11.1022 10.9332 10.6069 10.9332 10.3552V9.29162C11.0867 9.41657 11.293 9.60427 11.5628 9.88556C11.8079 10.1511 12.0027 10.3809 12.1692 10.5805C12.1986 10.6158 12.2278 10.651 12.2568 10.686C12.3862 10.8418 12.5108 10.992 12.6247 11.1155C12.7659 11.2688 12.9369 11.4341 13.1523 11.5562C13.3865 11.6888 13.6354 11.75 13.9028 11.75H15.4344C15.7643 11.75 16.202 11.6618 16.4977 11.2902C16.8 10.9103 16.7834 10.4511 16.6886 10.1002L16.6862 10.0914L16.6836 10.0826C16.5803 9.73384 16.3668 9.36971 16.133 9.02724C15.8922 8.67445 15.5893 8.28748 15.2579 7.88371C15.0566 7.62719 14.8134 7.36926 14.6218 7.1661L14.618 7.16209L14.6141 7.15791C14.5141 7.05191 14.4297 6.96241 14.36 6.88451C14.3253 6.84573 14.2979 6.81383 14.2768 6.78794C14.2762 6.78731 14.2757 6.78669 14.2752 6.78608L14.3289 6.70317C14.3815 6.62173 14.4564 6.50476 14.5469 6.36155C14.7275 6.07551 14.971 5.6829 15.2214 5.25842C15.4709 4.83543 15.7318 4.37308 15.9448 3.94925C16.1414 3.55805 16.3335 3.13032 16.4085 2.78399C16.4734 2.53627 16.5249 2.13359 16.2873 1.76595C16.0176 1.34851 15.5627 1.25 15.2156 1.25H13.684C13.334 1.25 13.0193 1.35483 12.7664 1.56178C12.527 1.75762 12.3962 2.00148 12.3204 2.19289ZM10.9362 5.94246C10.9362 5.94247 10.936 5.94179 10.9358 5.94036L10.9362 5.94246ZM6.79396 6.68246C6.79395 6.68243 6.79413 6.6815 6.79457 6.67974C6.7942 6.68161 6.79398 6.68249 6.79396 6.68246ZM7.48291 6.36756C7.4883 6.37059 7.49107 6.37253 7.4911 6.37275C7.49114 6.37297 7.48845 6.37145 7.48291 6.36756ZM10.9407 8.71152C10.9412 8.70912 10.9412 8.70943 10.9406 8.71205L10.9407 8.71152ZM10.5542 9.04698C10.5541 9.04676 10.5566 9.04714 10.5618 9.04875C10.5569 9.04799 10.5542 9.04719 10.5542 9.04698ZM10.5569 9.05103C10.5569 9.05102 10.5574 9.05096 10.5586 9.05088L10.5569 9.05103Z" stroke="#2CB2BB" stroke-width="1.5"/>
</svg>
